<?xml version="1.0" standalone="no"?>
<!DOCTYPE svg PUBLIC "-//W3C//DTD SVG 20010904//EN"
 "http://www.w3.org/TR/2001/REC-SVG-20010904/DTD/svg10.dtd">
<svg version="1.0" xmlns="http://www.w3.org/2000/svg"
 width="286.000000pt" height="222.000000pt" viewBox="0 0 286.000000 222.000000"
 preserveAspectRatio="xMidYMid meet">

<g transform="translate(0.000000,222.000000) scale(0.100000,-0.100000)"
fill="#000000" stroke="none">
<path d="M1197 2186 c-56 -15 -178 -96 -210 -140 -50 -67 -109 -208 -118 -280
-5 -38 -13 -74 -19 -80 -13 -13 -13 -66 0 -86 5 -9 5 -17 -1 -21 -14 -8 6 -57
26 -61 13 -2 12 -5 -6 -16 -15 -10 -19 -10 -14 -1 5 8 4 10 -4 5 -6 -4 -9 -12
-5 -17 3 -5 0 -16 -6 -24 -7 -8 -8 -15 -3 -15 4 0 14 -35 21 -77 6 -42 16 -81
21 -86 5 -5 5 10 0 35 -11 58 -11 120 1 138 15 24 20 7 23 -81 2 -71 6 -89 27
-116 13 -18 30 -33 37 -33 8 0 11 -5 8 -10 -4 -6 -11 -8 -16 -4 -6 3 -7 -5 -3
-23 9 -36 14 -42 14 -15 0 11 4 23 9 27 12 7 9 -54 -2 -72 -11 -18 8 -16 27 2
8 8 19 15 25 15 16 0 13 28 -3 37 -21 13 -29 50 -12 56 9 4 18 2 21 -3 4 -6
-1 -10 -11 -10 -13 0 -11 -5 10 -25 31 -29 33 -50 6 -67 -11 -7 -20 -17 -20
-22 0 -5 9 -1 21 10 16 15 22 16 29 5 4 -8 6 -21 2 -30 -3 -9 -2 -13 3 -9 17
16 22 73 8 102 -8 15 -17 40 -19 54 -3 15 -11 30 -17 34 -9 6 -9 10 2 17 8 5
9 11 3 15 -17 10 -2 44 17 39 11 -3 18 1 18 11 0 9 -7 16 -14 16 -8 0 -12 4
-8 9 3 5 -6 18 -20 29 -15 12 -21 22 -14 24 23 8 111 -28 130 -53 15 -19 19
-21 19 -6 0 9 4 17 9 17 5 0 7 9 4 20 -7 26 21 37 42 16 19 -18 55 -6 55 19 0
8 5 15 10 15 6 0 10 -4 10 -9 0 -5 8 -7 19 -4 24 6 36 -13 21 -32 -9 -11 -9
-15 -1 -15 17 0 13 -46 -5 -64 -8 -9 -11 -16 -5 -16 6 0 20 9 30 19 11 11 21
18 23 16 2 -2 3 11 3 28 1 18 3 41 5 52 3 11 0 19 -6 18 -7 -1 -11 5 -10 15 1
13 -10 18 -49 23 -27 3 -40 7 -27 7 47 4 11 20 -43 20 -37 0 -55 -5 -55 -13 0
-7 -13 -15 -30 -18 -24 -5 -30 -12 -30 -32 0 -16 -6 -25 -15 -25 -9 0 -15 9
-15 25 0 14 -5 25 -11 25 -8 0 -10 12 -6 35 5 28 2 38 -13 47 -10 6 -16 17
-13 24 2 7 -5 21 -16 31 -12 9 -21 25 -21 35 0 10 -5 18 -10 18 -6 0 -10 16
-8 35 1 19 6 35 11 35 4 0 6 4 2 9 -3 5 5 21 18 35 17 18 35 26 59 26 20 0 56
9 81 20 44 19 99 25 202 20 56 -2 103 12 111 35 14 35 118 56 144 29 31 -33
91 -206 76 -221 -2 -3 -1 -17 4 -33 5 -18 4 -32 -3 -39 -9 -9 -8 -14 2 -20 7
-5 9 -11 4 -14 -5 -3 -6 -33 -3 -67 6 -65 -2 -84 -21 -49 -8 16 -8 23 1 29 17
10 -50 19 -75 10 -19 -7 -18 -8 5 -14 14 -4 32 -17 39 -29 13 -21 13 -22 -6
-4 -11 9 -40 23 -64 31 l-44 13 43 7 c47 9 53 29 10 34 -26 3 -118 -38 -137
-62 -8 -10 -6 -19 8 -34 10 -12 23 -22 29 -22 6 0 9 -7 6 -15 -4 -8 -1 -15 4
-15 21 0 22 20 4 38 -18 18 -18 19 -1 31 20 12 47 16 36 5 -3 -4 -2 -15 4 -25
12 -23 47 -25 55 -4 8 19 24 19 24 0 0 -8 -15 -19 -32 -24 l-33 -9 31 -1 c16
-1 35 4 42 11 16 16 23 6 24 -31 1 -38 16 -41 20 -3 2 16 9 27 18 27 16 0 43
42 35 55 -10 17 6 38 26 33 13 -4 19 -1 17 7 -2 7 2 14 8 17 14 5 26 -31 25
-72 -1 -26 0 -27 9 -12 17 27 15 78 -3 92 -14 10 -15 18 -3 61 14 55 13 92 -5
145 -8 27 -8 42 0 57 16 29 14 34 -9 22 -17 -9 -21 -8 -26 7 -16 49 -27 73
-34 73 -5 0 -70 61 -145 136 -106 106 -145 138 -173 145 -54 12 -190 10 -245
-5z m-147 -624 c-8 -3 -8 -8 0 -17 6 -8 7 -21 2 -35 l-9 -24 -5 22 c-4 12 -2
20 3 16 5 -3 9 -2 9 3 -1 11 -26 43 -31 40 -2 -1 -1 2 3 8 5 5 8 20 8 35 1 23
2 22 16 -10 10 -24 12 -36 4 -38z m43 -33 c-8 -29 -13 -23 -13 14 0 22 3 28 9
18 5 -7 6 -22 4 -32z m167 -44 c0 -2 -15 -8 -32 -13 -18 -6 -41 -13 -52 -18
-14 -5 -17 -3 -14 7 6 18 98 41 98 24z m-249 -64 c4 -34 12 -56 21 -63 21 -12
1 -20 -22 -8 -18 10 -21 18 -16 43 5 30 5 31 -9 13 -15 -20 -20 -10 -9 18 5
14 33 12 35 -3z m-66 -11 c-3 -5 -10 -10 -16 -10 -5 0 -9 5 -9 10 0 6 7 10 16
10 8 0 12 -4 9 -10z m30 -83 c1 -23 5 -53 9 -67 5 -18 1 -16 -13 10 -21 36
-26 67 -15 95 10 24 17 10 19 -38z m45 -26 c0 -21 -13 -4 -17 22 -2 17 -1 19
7 7 5 -8 10 -21 10 -29z m5 -131 c3 -5 1 -10 -4 -10 -6 0 -11 5 -11 10 0 6 2
10 4 10 3 0 8 -4 11 -10z"/>
<path d="M1450 1466 c0 -2 7 -20 15 -40 9 -20 13 -42 9 -48 -5 -7 -2 -8 6 -3
10 6 12 4 7 -8 -3 -10 -3 -17 1 -17 4 0 18 -3 32 -7 l25 -6 -28 22 c-15 13
-25 27 -22 31 8 13 -22 80 -34 80 -6 0 -11 -2 -11 -4z"/>
<path d="M1796 1418 c-12 -37 -15 -98 -6 -98 11 0 13 12 14 72 1 39 -2 47 -8
26z"/>
<path d="M1270 1410 c-20 -6 -21 -8 -5 -8 11 0 29 3 40 8 25 11 -1 11 -35 0z"/>
<path d="M1215 1400 c-3 -5 1 -10 9 -10 9 0 16 5 16 10 0 6 -4 10 -9 10 -6 0
-13 -4 -16 -10z"/>
<path d="M1297 1257 c-31 -34 -65 -73 -74 -87 -17 -24 -16 -25 2 -10 10 8 33
30 51 49 29 33 32 34 38 14 3 -11 18 -25 31 -31 14 -6 25 -16 25 -22 0 -9 92
-9 128 -1 2 1 0 6 -3 11 -3 6 -1 10 4 10 6 0 11 -7 11 -16 0 -8 5 -12 10 -9 6
3 10 18 10 33 0 33 32 58 49 38 6 -7 7 -17 3 -21 -4 -5 -1 -5 6 -1 9 6 12 3
10 -9 -2 -12 5 -19 20 -21 12 -2 22 -1 22 3 0 12 -84 114 -102 124 -30 16 -34
2 -9 -25 23 -24 21 -46 -2 -46 -7 0 -20 -9 -30 -20 -20 -24 -69 -27 -87 -5 -7
9 -21 13 -34 9 -13 -3 -27 1 -34 8 -14 17 -5 56 14 60 8 2 10 8 6 15 -6 9 -25
-6 -65 -50z"/>
<path d="M1548 1213 c6 -2 12 -9 12 -14 0 -6 -4 -7 -10 -4 -5 3 -10 1 -10 -4
0 -6 9 -11 20 -11 18 0 19 3 10 20 -6 11 -16 20 -23 19 -9 0 -9 -2 1 -6z"/>
<path d="M1117 1173 c-8 -15 -1 -53 13 -66 10 -10 12 -9 7 6 -4 9 -3 17 2 17
13 0 8 43 -6 47 -6 2 -13 0 -16 -4z"/>
<path d="M1695 1150 c-3 -5 -1 -10 4 -10 6 0 11 5 11 10 0 6 -2 10 -4 10 -3 0
-8 -4 -11 -10z"/>
<path d="M1500 1115 c-19 -7 -74 -14 -122 -14 -47 -1 -93 -4 -102 -7 -21 -8
-10 -24 17 -24 12 0 30 -7 40 -15 18 -13 45 -10 57 5 9 13 111 20 104 8 -5 -8
3 -9 27 -4 19 3 36 11 37 16 2 6 12 10 23 10 27 0 24 15 -6 28 -31 14 -30 14
-75 -3z"/>
<path d="M1615 1020 c4 -6 11 -8 16 -5 14 9 11 15 -7 15 -8 0 -12 -5 -9 -10z"/>
<path d="M1639 1000 c-1 -8 -2 -28 -3 -44 -1 -19 -8 -32 -21 -37 -12 -4 -14
-8 -5 -8 10 -1 11 -4 3 -12 -6 -6 -9 -18 -6 -25 3 -8 0 -14 -7 -14 -7 0 -10
-7 -7 -14 6 -16 -16 -12 -41 7 -9 7 -11 6 -6 -6 7 -18 -13 -60 -26 -52 -4 3
-11 -1 -13 -7 -4 -10 -8 -9 -16 2 -8 11 -11 12 -11 2 0 -10 -12 -12 -47 -8
-91 11 -129 26 -138 55 -3 12 -11 21 -17 21 -5 0 -8 7 -4 15 3 8 1 15 -4 15
-6 0 -10 -4 -10 -10 0 -5 -4 -10 -10 -10 -6 0 -5 10 2 25 12 27 3 49 -11 26
-6 -10 -10 -10 -16 -1 -5 8 -11 5 -22 -9 -18 -26 -28 -26 -53 -1 -11 11 -20
16 -20 12 0 -4 5 -13 12 -20 9 -9 9 -15 1 -23 -8 -8 -16 -1 -28 25 -18 38 -44
64 -32 32 27 -69 -118 -149 -441 -242 -86 -25 -211 -63 -277 -85 -67 -21 -129
-39 -138 -39 -24 0 -47 -41 -89 -159 -20 -58 -51 -145 -68 -193 -17 -48 -33
-117 -37 -153 l-6 -65 527 0 526 0 2 198 c1 108 1 211 1 227 -7 309 -6 456 5
467 9 9 12 6 12 -17 0 -46 43 -126 91 -170 l43 -40 -42 47 c-44 50 -52 68 -28
68 8 0 17 6 20 13 3 6 3 2 0 -10 -3 -13 -1 -23 5 -23 6 0 12 -10 12 -22 1 -17
2 -19 6 -5 2 9 8 17 13 17 5 0 7 8 3 18 -4 10 5 5 23 -13 16 -16 27 -33 26
-37 -1 -5 7 -8 18 -8 12 0 20 -7 20 -16 0 -10 -6 -14 -14 -11 -10 4 -13 1 -9
-9 7 -18 20 -18 30 -1 10 17 43 30 43 17 0 -6 -8 -10 -17 -10 -13 0 -14 -3 -5
-12 17 -17 15 -31 -3 -24 -20 7 -19 -4 3 -20 16 -13 16 -14 -3 -8 -19 5 -19 5
-1 -7 14 -8 28 -9 54 -1 19 6 38 9 42 7 11 -7 8 29 -4 44 -9 12 -8 13 6 8 9
-3 18 -1 20 5 2 6 14 12 26 13 18 1 21 -2 16 -18 -4 -13 -2 -17 5 -13 20 13
12 -7 -16 -38 -15 -17 14 10 65 59 52 50 98 99 103 110 6 11 -7 1 -28 -23 -21
-23 -41 -42 -45 -42 -13 0 -9 18 8 34 8 9 11 16 5 16 -12 0 -51 -49 -51 -64 0
-6 4 -4 10 4 5 8 12 11 16 7 4 -4 -3 -19 -16 -33 -22 -23 -25 -23 -31 -7 -4
10 -1 29 6 43 17 32 85 98 85 82 0 -7 5 -12 10 -12 6 0 10 8 10 18 0 9 12 30
27 47 22 23 28 40 30 84 2 60 -4 81 -18 60 -8 -12 -11 -11 -19 1 -9 13 -10 13
-11 0z m-419 -110 c0 -5 -5 -10 -11 -10 -5 0 -7 5 -4 10 3 6 8 10 11 10 2 0 4
-4 4 -10z m-65 -40 c3 -5 1 -10 -4 -10 -6 0 -11 5 -11 10 0 6 2 10 4 10 3 0 8
-4 11 -10z m425 -24 c0 -2 -8 -10 -17 -17 -16 -13 -17 -12 -4 4 13 16 21 21
21 13z"/>
<path d="M1201 953 c0 -13 2 -14 6 -4 4 11 7 11 14 0 4 -7 11 -10 16 -6 4 5 1
12 -7 17 -22 14 -30 12 -29 -7z"/>
<path d="M1720 951 c0 -5 9 -30 20 -56 26 -61 26 -173 1 -365 -11 -80 -30
-219 -41 -310 -12 -91 -24 -177 -27 -192 l-5 -28 581 0 c393 0 581 3 581 10 0
6 -6 26 -14 45 -8 18 -17 60 -21 92 -15 128 -79 323 -108 323 -7 0 -32 9 -56
20 -23 12 -92 39 -154 61 -165 60 -423 163 -503 200 -54 25 -88 52 -155 121
-83 85 -99 98 -99 79z"/>
<path d="M1167 933 c-4 -3 -7 -11 -7 -17 0 -6 5 -5 12 2 6 6 9 14 7 17 -3 3
-9 2 -12 -2z"/>
<path d="M1297 874 c-6 -10 9 -42 16 -34 3 3 1 14 -3 24 -3 11 -9 15 -13 10z"/>
<path d="M1230 741 c0 -5 7 -12 16 -15 14 -5 15 -4 4 9 -14 17 -20 19 -20 6z"/>
<path d="M1306 549 c4 -7 0 -9 -14 -5 -23 8 -81 -13 -99 -36 -11 -12 -8 -17
13 -27 19 -8 30 -9 39 -1 11 9 15 -4 20 -65 7 -70 5 -82 -23 -154 -25 -61 -52
-196 -52 -253 0 -5 54 -8 121 -8 l121 0 -6 78 c-4 42 -18 115 -31 162 -27 96
-31 79 48 194 37 54 77 89 77 66 0 -5 5 -10 10 -10 21 0 8 17 -28 38 -33 18
-49 21 -104 15 -44 -4 -67 -2 -72 6 -4 6 -12 11 -17 11 -6 0 -7 -5 -3 -11z"/>
</g>
</svg>
